# xmcd
#
# Track frame offsets:
#	150
#	17802
#	36867
#	47752
#	61752
#	83095
#	91980
#	104590
#	126775
#	136612
#	152055
#	165617
#
# Disc length: 2404 seconds
#
# Revision: 2
# Processed by: cddbd v1.4PL0 Copyright (c) Steve Scherf et al.
# Submitted via: dBpowerAMP V4.0
#
DISCID=9009620c
DTITLE=Bar-J Wranglers - Cowboy's Dreams
DYEAR=1900
DGENRE=country
TTITLE0=Ghost Riders In The Sky
TTITLE1=Streets Of Laredo
TTITLE2=Chime Bells
TTITLE3=Red River Valley
TTITLE4=Night Rider's Lament
TTITLE5=Alleluia
TTITLE6=Texas Plains
TTITLE7=Strawberry Roan
TTITLE8=Back In The Saddle
TTITLE9=Colorado
TTITLE10=Cowboy Camp Meetin'
TTITLE11=Cowboy's Dream
EXTD=Album Title change
EXTT0=
EXTT1=
EXTT2=
EXTT3=
EXTT4=
EXTT5=
EXTT6=
EXTT7=
EXTT8=
EXTT9=
EXTT10=
EXTT11=
PLAYORDER=
